<svg width="199" height="208" viewBox="0 0 199 208" fill="none" xmlns="http://www.w3.org/2000/svg">
<path d="M77.3784 9.1622e-05C49.7721 0.0472947 18.0574 17.064 0 37.9977C0 37.9977 42.0963 34.2624 48.865 53.7961C59.7975 85.3447 2.65584 81.7759 1.83157 131.113C1.2108 168.283 41.6247 206.708 80.2511 206.732C82.1276 207.358 161.277 206.732 161.277 206.732C170.087 206.607 170.453 196.69 139.54 190.417C204.374 124.576 100.913 119.58 101.486 170.031C93.4898 161.658 101.743 125.582 144.989 127.356C159.645 137.812 168.064 139.545 184.426 135.943C187.535 135.259 189.792 124.514 181.994 123.891L167.842 122.76C155.326 111.326 152.337 106.517 164.872 97.1713C195.54 105.213 199.182 102.549 199.168 91.2353C199.154 80.167 194.925 50.8753 169.852 49.4583C166.423 44.8667 174.212 30.7365 168.092 30.329C159.624 29.7652 145.611 42.9834 147.489 49.8279C139.324 53.2813 130.243 63.702 121.149 76.3747C90.2813 87.699 67.9382 139.894 67.6443 152.359C67.3865 71.1187 135.885 71.9385 130.084 43.3602C123.819 12.4893 100.252 -0.0390959 77.3784 9.1622e-05ZM178.318 65.1947C181.508 65.1947 184.095 67.7811 184.095 70.9718C184.095 74.162 181.508 76.7484 178.318 76.7484C175.128 76.7484 172.541 74.162 172.541 70.9718C172.541 67.7811 175.128 65.1947 178.318 65.1947Z" fill="#5D5DFF"/>
</svg>
